<svg width="181" height="184" viewBox="0 0 181 184" fill="none" xmlns="http://www.w3.org/2000/svg">
<path d="M175.976 184C179.821 184 182.239 179.834 180.337 176.462L130.231 89.5007L80.1253 2.49935C78.1829 -0.833118 73.3864 -0.833118 71.444 2.49935L21.2195 89.4213L0.685651 124.928C-1.25674 128.26 1.16134 132.466 5.00647 132.466L43.7749 132.505C45.5588 132.505 47.2237 131.553 48.1354 130.006L71.3648 89.818C73.3072 86.4856 78.1433 86.4856 80.046 89.818L104.821 132.823C106.764 136.155 104.346 140.361 100.461 140.361L54.8743 140.321C53.0905 140.321 51.4256 141.273 50.5138 142.82L31.1296 176.423C29.1872 179.755 31.6053 183.96 35.4504 183.96L75.6459 184H175.976Z" fill="white"/>
</svg>
